<svg id="Layer_1" xmlns="http://www.w3.org/2000/svg" viewBox="0 0 35.4 27.9"><style>.st0{fill:#fff}</style><path class="st0" d="M35.3 13.9c0 .9-.8 1.7-1.7 1.7H1.9c-.9 0-1.7-.8-1.7-1.7v-.2c.1-.9.8-1.7 1.7-1.7h31.6c.9 0 1.7.8 1.7 1.7l.1.2z"/><path class="st0" d="M15.3.6c.7.7.7 1.7 0 2.4L3.2 15c-.7.7-1.7.7-2.4 0l-.1-.1c-.7-.7-.7-1.7 0-2.4L12.8.5c.7-.7 1.7-.7 2.4 0l.1.1z"/><path class="st0" d="M15.3 26.9c.7-.7.7-1.7 0-2.4l-12.1-12c-.7-.7-1.7-.7-2.4 0l-.1.1c-.7.7-.7 1.7 0 2.4l12.1 12c.7.7 1.7.7 2.4 0l.1-.1z"/></svg>