<svg xmlns="http://www.w3.org/2000/svg" viewBox="0 0 1000 1000"><path d="M392.78 11.04c-54.57 8.23-85.01 19.15-118.71 42.89-25.46 17.81-51.89 48.25-60.89 69.88-2.11 4.79-4.4 6.13-18.19 9.96-75.44 20.87-131.73 89.99-143.22 175.96-3.25 24.7-1.34 73.33 4.02 98.22 4.8 23.36 15.14 56.67 23.18 75.05l5.55 12.83-9.57 15.7c-5.36 8.81-12.25 24.13-15.7 34.08-5.55 17.04-5.93 20.3-6.13 46.14-.19 31.21 2.3 43.46 12.64 64.71 12.06 24.32 37.34 50.35 60.5 62.23 9.76 4.98 11.87 6.89 11.3 9.96-.58 2.11-2.87 11.11-5.17 20.1-5.55 20.68-4.59 49.59 1.91 68.74 15.51 44.42 62.23 80.22 118.71 90.95 8.81 1.72 16.08 3.25 16.27 3.64.19.19 3.26 5.94 6.89 12.83 8.62 16.85 31.21 39.25 47.87 47.29 23.17 11.3 56.1 17.81 89.8 17.81 31.98-.19 55.14-8.23 75.05-26.61l11.1-10.15 10.72 9.96c26.23 23.74 59.16 31.59 99.37 23.17 53.23-10.91 94.97-40.78 114.3-81.95 6.13-13.02 4.98-12.45 29.29-15.12 60.7-6.51 106.65-39.44 116.03-83.48 4.21-19.14.19-53.04-9-77.16-.77-1.53 3.83-5.17 12.06-9.38 25.46-13.59 45.95-33.51 59.93-58.01 25.66-45.19 22.02-107.22-8.81-153.36l-8.42-12.25 5.55-12.83c8.04-18.19 18.38-51.69 23.17-74.86 5.36-24.89 7.28-73.52 4.02-98.22-4.59-33.7-17.04-68.35-34.65-94.97-26.04-39.63-65.29-68.93-108.56-80.99-13.79-3.83-16.08-5.17-18.19-9.96-4.79-11.49-21.63-35.04-33.89-47.29-40.02-39.63-95.16-62.61-159.11-66.06-40.02-2.3-64.33 4.4-82.71 22.02L500 43.4l-11.1-10.91c-12.25-11.87-24.32-17.42-44.8-20.87-11.5-1.73-41.17-2.3-51.32-.58zm60.31 43.08c12.06 6.51 19.91 19.53 24.12 40.78 3.25 15.51 4.79 785.96 1.72 805.68-2.49 16.66-7.28 25.66-18.19 35.42-12.83 11.3-23.93 14.36-49.59 14.17-25.66-.38-34.27-1.53-51.89-6.51-30.25-8.81-45.38-24.12-56.29-57.44-3.64-10.72-4.98-13.02-8.42-13.02-13.59-.19-42.31-4.4-53.04-7.85-38.1-12.64-63.57-36.57-71.61-67.78-5.94-22.21-2.87-38.87 12.64-69.69 5.55-11.11 10.34-20.68 10.72-21.45.38-.57-6.51-4.02-15.32-7.47-37.72-15.13-54.57-26.61-68.93-46.72-12.81-18.56-17.79-34.83-17.59-59.53.19-21.45 5.74-41.74 16.08-59.74 16.47-28.53 58.4-59.93 91.33-68.35 13.4-3.45 42.31-4.02 59.16-.96 24.13 4.21 53.42 16.27 68.35 28.15 9.57 7.66 16.66 9.19 24.89 5.17 7.28-3.45 10.91-9.57 10.91-18.38 0-16.08-44.61-42.12-87.88-51.5-56.29-12.06-98.41-3.83-144.17 27.95-8.23 5.74-15.13 10.34-15.7 10.34-1.72 0-16.47-47.87-20.49-67.01-5.74-27-6.13-75.63-.96-98.6 9.57-41.55 28.72-74.29 57.44-98.6 20.87-17.81 42.51-27.76 74.48-34.27l15.32-3.06 3.26-9.57c17.04-50.35 68.16-89.22 133.45-101.48 20.48-3.85 68.16-3.08 76.2 1.32zm185.15 2.11c58.59 15.32 102.62 51.89 118.33 98.03l3.25 9.57 15.32 3.06c31.97 6.51 53.61 16.47 74.48 34.27 28.72 24.32 47.87 57.06 57.44 98.6 5.17 22.98 4.79 71.61-.96 98.6-5.93 27.95-16.85 61.27-22.21 67.01-2.3 2.68-7.08 10.34-10.53 17.23-22.02 45.2-65.49 69.14-135.37 74.69-14.17 1.15-27.76 2.87-30.25 3.83-10.91 4.21-14.17 20.49-5.93 30.06 4.02 4.79 5.93 5.36 19.34 5.93 35.04 1.91 81.37-8.04 114.5-24.51 17.23-8.62 44.42-28.72 49.97-37.33 1.72-2.68 4.02-4.79 4.98-4.79.96 0 4.4 4.98 7.47 11.1 18.19 35.8 16.66 76.01-3.64 107.03-13.79 20.87-31.78 34.08-65.1 47.29-9.96 4.02-18.96 8.04-19.91 8.81-.96.96 1.91 9.96 7.28 21.83 16.08 36.19 19.91 61.27 11.87 80.42-10.53 25.46-49.21 43.27-94.2 44.04-21.06.19-21.06.19-36.19-7.47-20.1-10.15-40.21-29.68-48.44-46.91-6.51-13.98-11.87-37.14-11.87-51.7 0-24.13-17.04-36.76-32.17-23.93-7.47 6.13-8.42 12.06-5.94 36.76 5.17 54.37 30.83 93.82 77.93 119.47 6.51 3.45 11.87 7.47 11.87 8.62 0 4.98-16.27 26.23-26.42 34.46-12.25 9.96-22.02 15.32-42.5 22.79-12.64 4.79-17.23 5.36-37.33 5.55-20.49.19-23.93-.19-31.59-4.21-18.19-9.57-27.19-22.21-30.63-42.7-2.68-16.66-2.68-756.1 0-786.73 2.87-33.31 8.62-48.44 21.25-58.01 8.04-5.94 16.27-6.89 47.67-6.32 24.1.58 33.1 1.73 48.23 5.56z"/><path d="M369.23 211.5c-3.45 3.26-5.55 8.04-7.28 16.47-6.13 31.78-35.99 51.5-83.48 55.33-21.25 1.53-28.15 4.6-31.4 13.21-4.79 12.45 3.25 24.51 17.81 26.42 9.57 1.34 35.04-1.53 52.46-5.94 46.33-11.68 82.71-50.35 83.48-88.27.19-10.72-4.02-18.76-10.91-20.68-8.23-2.28-15.7-1.13-20.68 3.46zM222.95 599.03c-9.57.96-15.89 8.23-15.89 18.19 0 12.25 5.55 16.85 25.85 22.4 39.25 10.34 63.38 31.02 78.12 67.01 6.51 15.7 8.62 25.85 11.87 54.57 2.3 20.87 3.06 23.36 7.66 27.19 6.89 5.93 18.19 5.93 25.27-.19 4.79-4.02 5.36-5.93 5.93-19.15.96-17.23-3.64-47.29-10.15-66.44-18.19-53.42-58.21-89.99-111.43-101.67-6.12-1.34-13.78-2.29-17.23-1.91zM648.2 247.31c-14.17 6.89-13.41 33.7 1.91 65.86 17.61 37.34 55.33 67.4 100.71 80.22 18.19 5.17 56.67 9.57 65.87 7.66 12.06-2.49 19.15-14.74 14.74-26.04-3.25-8.81-10.15-11.68-32.55-13.4-36.19-2.68-61.84-11.68-84.44-29.49-19.72-15.51-32.17-36.38-37.14-62.03-2.11-11.68-3.64-15.13-8.62-19.53-6.32-5.55-13.21-6.7-20.48-3.25z"/></svg>